<svg xmlns="http://www.w3.org/2000/svg" width="32" height="32" viewBox="0 0 32 32">
    <g fill="none" fill-rule="nonzero">
        <circle cx="16" cy="16" r="16" fill="#E22128"/>
        <g fill="#FFF" transform="translate(4 5)">
            <path d="M16.1 0H7.85A6.876 6.876 0 0 0 .975 6.875v8.25A6.876 6.876 0 0 0 7.85 22h8.25a6.876 6.876 0 0 0 6.875-6.875v-8.25A6.876 6.876 0 0 0 16.1 0zm4.812 15.125a4.818 4.818 0 0 1-4.812 4.813H7.85a4.818 4.818 0 0 1-4.813-4.813v-8.25A4.818 4.818 0 0 1 7.85 2.062h8.25a4.818 4.818 0 0 1 4.812 4.813v8.25z"/>
            <path d="M11.975 6a5 5 0 1 0 0 10 5 5 0 0 0 0-10zm0 8c-1.654 0-3-1.346-3-3 0-1.655 1.346-3 3-3 1.653 0 3 1.345 3 3 0 1.654-1.347 3-3 3z"/>
            <circle cx="17.975" cy="6" r="1"/>
        </g>
    </g>
</svg>
